<?xml version="1.0" encoding="utf-8" standalone="no"?>
<!DOCTYPE svg PUBLIC "-//W3C//DTD SVG 1.1//EN"
  "http://www.w3.org/Graphics/SVG/1.1/DTD/svg11.dtd">
<svg xmlns:xlink="http://www.w3.org/1999/xlink" width="864pt" height="576pt" viewBox="0 0 864 576" xmlns="http://www.w3.org/2000/svg" version="1.1">
 <metadata>
  <rdf:RDF xmlns:dc="http://purl.org/dc/elements/1.1/" xmlns:cc="http://creativecommons.org/ns#" xmlns:rdf="http://www.w3.org/1999/02/22-rdf-syntax-ns#">
   <cc:Work>
    <dc:type rdf:resource="http://purl.org/dc/dcmitype/StillImage"/>
    <dc:date>2023-04-17T12:31:57.972801</dc:date>
    <dc:format>image/svg+xml</dc:format>
    <dc:creator>
     <cc:Agent>
      <dc:title>Matplotlib v3.5.1, https://matplotlib.org/</dc:title>
     </cc:Agent>
    </dc:creator>
   </cc:Work>
  </rdf:RDF>
 </metadata>
 <defs>
  <style type="text/css">*{stroke-linejoin: round; stroke-linecap: butt}</style>
 </defs>
 <g id="figure_1">
  <g id="patch_1">
   <path d="M 0 576 
L 864 576 
L 864 0 
L 0 0 
L 0 576 
z
" style="fill: none"/>
  </g>
  <g id="axes_1">
   <g id="patch_2">
    <path d="M 108 504 
L 777.6 504 
L 777.6 69.12 
L 108 69.12 
z
" style="fill: #ffffff"/>
   </g>
   <g id="matplotlib.axis_1">
    <g id="xtick_1">
     <g id="line2d_1">
      <defs>
       <path id="m19f64d36a5" d="M 0 0 
L 0 3.5 
" style="stroke: #000000; stroke-width: 0.8"/>
      </defs>
      <g>
       <use xlink:href="#m19f64d36a5" x="138.436364" y="504" style="stroke: #000000; stroke-width: 0.8"/>
      </g>
     </g>
     <g id="text_1">
      <!-- 0 -->
      <g transform="translate(135.255114 518.598438)scale(0.1 -0.1)">
       <defs>
        <path id="DejaVuSans-30" d="M 2034 4250 
Q 1547 4250 1301 3770 
Q 1056 3291 1056 2328 
Q 1056 1369 1301 889 
Q 1547 409 2034 409 
Q 2525 409 2770 889 
Q 3016 1369 3016 2328 
Q 3016 3291 2770 3770 
Q 2525 4250 2034 4250 
z
M 2034 4750 
Q 2819 4750 3233 4129 
Q 3647 3509 3647 2328 
Q 3647 1150 3233 529 
Q 2819 -91 2034 -91 
Q 1250 -91 836 529 
Q 422 1150 422 2328 
Q 422 3509 836 4129 
Q 1250 4750 2034 4750 
z
" transform="scale(0.015625)"/>
       </defs>
       <use xlink:href="#DejaVuSans-30"/>
      </g>
     </g>
    </g>
    <g id="xtick_2">
     <g id="line2d_2">
      <g>
       <use xlink:href="#m19f64d36a5" x="239.890909" y="504" style="stroke: #000000; stroke-width: 0.8"/>
      </g>
     </g>
     <g id="text_2">
      <!-- 5 -->
      <g transform="translate(236.709659 518.598438)scale(0.1 -0.1)">
       <defs>
        <path id="DejaVuSans-35" d="M 691 4666 
L 3169 4666 
L 3169 4134 
L 1269 4134 
L 1269 2991 
Q 1406 3038 1543 3061 
Q 1681 3084 1819 3084 
Q 2600 3084 3056 2656 
Q 3513 2228 3513 1497 
Q 3513 744 3044 326 
Q 2575 -91 1722 -91 
Q 1428 -91 1123 -41 
Q 819 9 494 109 
L 494 744 
Q 775 591 1075 516 
Q 1375 441 1709 441 
Q 2250 441 2565 725 
Q 2881 1009 2881 1497 
Q 2881 1984 2565 2268 
Q 2250 2553 1709 2553 
Q 1456 2553 1204 2497 
Q 953 2441 691 2322 
L 691 4666 
z
" transform="scale(0.015625)"/>
       </defs>
       <use xlink:href="#DejaVuSans-35"/>
      </g>
     </g>
    </g>
    <g id="xtick_3">
     <g id="line2d_3">
      <g>
       <use xlink:href="#m19f64d36a5" x="341.345455" y="504" style="stroke: #000000; stroke-width: 0.8"/>
      </g>
     </g>
     <g id="text_3">
      <!-- 10 -->
      <g transform="translate(334.982955 518.598438)scale(0.1 -0.1)">
       <defs>
        <path id="DejaVuSans-31" d="M 794 531 
L 1825 531 
L 1825 4091 
L 703 3866 
L 703 4441 
L 1819 4666 
L 2450 4666 
L 2450 531 
L 3481 531 
L 3481 0 
L 794 0 
L 794 531 
z
" transform="scale(0.015625)"/>
       </defs>
       <use xlink:href="#DejaVuSans-31"/>
       <use xlink:href="#DejaVuSans-30" x="63.623047"/>
      </g>
     </g>
    </g>
    <g id="xtick_4">
     <g id="line2d_4">
      <g>
       <use xlink:href="#m19f64d36a5" x="442.8" y="504" style="stroke: #000000; stroke-width: 0.8"/>
      </g>
     </g>
     <g id="text_4">
      <!-- 15 -->
      <g transform="translate(436.4375 518.598438)scale(0.1 -0.1)">
       <use xlink:href="#DejaVuSans-31"/>
       <use xlink:href="#DejaVuSans-35" x="63.623047"/>
      </g>
     </g>
    </g>
    <g id="xtick_5">
     <g id="line2d_5">
      <g>
       <use xlink:href="#m19f64d36a5" x="544.254545" y="504" style="stroke: #000000; stroke-width: 0.8"/>
      </g>
     </g>
     <g id="text_5">
      <!-- 20 -->
      <g transform="translate(537.892045 518.598438)scale(0.1 -0.1)">
       <defs>
        <path id="DejaVuSans-32" d="M 1228 531 
L 3431 531 
L 3431 0 
L 469 0 
L 469 531 
Q 828 903 1448 1529 
Q 2069 2156 2228 2338 
Q 2531 2678 2651 2914 
Q 2772 3150 2772 3378 
Q 2772 3750 2511 3984 
Q 2250 4219 1831 4219 
Q 1534 4219 1204 4116 
Q 875 4013 500 3803 
L 500 4441 
Q 881 4594 1212 4672 
Q 1544 4750 1819 4750 
Q 2544 4750 2975 4387 
Q 3406 4025 3406 3419 
Q 3406 3131 3298 2873 
Q 3191 2616 2906 2266 
Q 2828 2175 2409 1742 
Q 1991 1309 1228 531 
z
" transform="scale(0.015625)"/>
       </defs>
       <use xlink:href="#DejaVuSans-32"/>
       <use xlink:href="#DejaVuSans-30" x="63.623047"/>
      </g>
     </g>
    </g>
    <g id="xtick_6">
     <g id="line2d_6">
      <g>
       <use xlink:href="#m19f64d36a5" x="645.709091" y="504" style="stroke: #000000; stroke-width: 0.8"/>
      </g>
     </g>
     <g id="text_6">
      <!-- 25 -->
      <g transform="translate(639.346591 518.598438)scale(0.1 -0.1)">
       <use xlink:href="#DejaVuSans-32"/>
       <use xlink:href="#DejaVuSans-35" x="63.623047"/>
      </g>
     </g>
    </g>
    <g id="xtick_7">
     <g id="line2d_7">
      <g>
       <use xlink:href="#m19f64d36a5" x="747.163636" y="504" style="stroke: #000000; stroke-width: 0.8"/>
      </g>
     </g>
     <g id="text_7">
      <!-- 30 -->
      <g transform="translate(740.801136 518.598438)scale(0.1 -0.1)">
       <defs>
        <path id="DejaVuSans-33" d="M 2597 2516 
Q 3050 2419 3304 2112 
Q 3559 1806 3559 1356 
Q 3559 666 3084 287 
Q 2609 -91 1734 -91 
Q 1441 -91 1130 -33 
Q 819 25 488 141 
L 488 750 
Q 750 597 1062 519 
Q 1375 441 1716 441 
Q 2309 441 2620 675 
Q 2931 909 2931 1356 
Q 2931 1769 2642 2001 
Q 2353 2234 1838 2234 
L 1294 2234 
L 1294 2753 
L 1863 2753 
Q 2328 2753 2575 2939 
Q 2822 3125 2822 3475 
Q 2822 3834 2567 4026 
Q 2313 4219 1838 4219 
Q 1578 4219 1281 4162 
Q 984 4106 628 3988 
L 628 4550 
Q 988 4650 1302 4700 
Q 1616 4750 1894 4750 
Q 2613 4750 3031 4423 
Q 3450 4097 3450 3541 
Q 3450 3153 3228 2886 
Q 3006 2619 2597 2516 
z
" transform="scale(0.015625)"/>
       </defs>
       <use xlink:href="#DejaVuSans-33"/>
       <use xlink:href="#DejaVuSans-30" x="63.623047"/>
      </g>
     </g>
    </g>
    <g id="text_8">
     <!-- X -->
     <g transform="translate(439.375 532.276562)scale(0.1 -0.1)">
      <defs>
       <path id="DejaVuSans-58" d="M 403 4666 
L 1081 4666 
L 2241 2931 
L 3406 4666 
L 4084 4666 
L 2584 2425 
L 4184 0 
L 3506 0 
L 2194 1984 
L 872 0 
L 191 0 
L 1856 2491 
L 403 4666 
z
" transform="scale(0.015625)"/>
      </defs>
      <use xlink:href="#DejaVuSans-58"/>
     </g>
    </g>
   </g>
   <g id="matplotlib.axis_2">
    <g id="ytick_1">
     <g id="line2d_8">
      <defs>
       <path id="mfdad68ea79" d="M 0 0 
L -3.5 0 
" style="stroke: #000000; stroke-width: 0.8"/>
      </defs>
      <g>
       <use xlink:href="#mfdad68ea79" x="108" y="457.293773" style="stroke: #000000; stroke-width: 0.8"/>
      </g>
     </g>
     <g id="text_9">
      <!-- 40 -->
      <g transform="translate(88.275 461.092992)scale(0.1 -0.1)">
       <defs>
        <path id="DejaVuSans-34" d="M 2419 4116 
L 825 1625 
L 2419 1625 
L 2419 4116 
z
M 2253 4666 
L 3047 4666 
L 3047 1625 
L 3713 1625 
L 3713 1100 
L 3047 1100 
L 3047 0 
L 2419 0 
L 2419 1100 
L 313 1100 
L 313 1709 
L 2253 4666 
z
" transform="scale(0.015625)"/>
       </defs>
       <use xlink:href="#DejaVuSans-34"/>
       <use xlink:href="#DejaVuSans-30" x="63.623047"/>
      </g>
     </g>
    </g>
    <g id="ytick_2">
     <g id="line2d_9">
      <g>
       <use xlink:href="#mfdad68ea79" x="108" y="403.415864" style="stroke: #000000; stroke-width: 0.8"/>
      </g>
     </g>
     <g id="text_10">
      <!-- 60 -->
      <g transform="translate(88.275 407.215083)scale(0.1 -0.1)">
       <defs>
        <path id="DejaVuSans-36" d="M 2113 2584 
Q 1688 2584 1439 2293 
Q 1191 2003 1191 1497 
Q 1191 994 1439 701 
Q 1688 409 2113 409 
Q 2538 409 2786 701 
Q 3034 994 3034 1497 
Q 3034 2003 2786 2293 
Q 2538 2584 2113 2584 
z
M 3366 4563 
L 3366 3988 
Q 3128 4100 2886 4159 
Q 2644 4219 2406 4219 
Q 1781 4219 1451 3797 
Q 1122 3375 1075 2522 
Q 1259 2794 1537 2939 
Q 1816 3084 2150 3084 
Q 2853 3084 3261 2657 
Q 3669 2231 3669 1497 
Q 3669 778 3244 343 
Q 2819 -91 2113 -91 
Q 1303 -91 875 529 
Q 447 1150 447 2328 
Q 447 3434 972 4092 
Q 1497 4750 2381 4750 
Q 2619 4750 2861 4703 
Q 3103 4656 3366 4563 
z
" transform="scale(0.015625)"/>
       </defs>
       <use xlink:href="#DejaVuSans-36"/>
       <use xlink:href="#DejaVuSans-30" x="63.623047"/>
      </g>
     </g>
    </g>
    <g id="ytick_3">
     <g id="line2d_10">
      <g>
       <use xlink:href="#mfdad68ea79" x="108" y="349.537955" style="stroke: #000000; stroke-width: 0.8"/>
      </g>
     </g>
     <g id="text_11">
      <!-- 80 -->
      <g transform="translate(88.275 353.337174)scale(0.1 -0.1)">
       <defs>
        <path id="DejaVuSans-38" d="M 2034 2216 
Q 1584 2216 1326 1975 
Q 1069 1734 1069 1313 
Q 1069 891 1326 650 
Q 1584 409 2034 409 
Q 2484 409 2743 651 
Q 3003 894 3003 1313 
Q 3003 1734 2745 1975 
Q 2488 2216 2034 2216 
z
M 1403 2484 
Q 997 2584 770 2862 
Q 544 3141 544 3541 
Q 544 4100 942 4425 
Q 1341 4750 2034 4750 
Q 2731 4750 3128 4425 
Q 3525 4100 3525 3541 
Q 3525 3141 3298 2862 
Q 3072 2584 2669 2484 
Q 3125 2378 3379 2068 
Q 3634 1759 3634 1313 
Q 3634 634 3220 271 
Q 2806 -91 2034 -91 
Q 1263 -91 848 271 
Q 434 634 434 1313 
Q 434 1759 690 2068 
Q 947 2378 1403 2484 
z
M 1172 3481 
Q 1172 3119 1398 2916 
Q 1625 2713 2034 2713 
Q 2441 2713 2670 2916 
Q 2900 3119 2900 3481 
Q 2900 3844 2670 4047 
Q 2441 4250 2034 4250 
Q 1625 4250 1398 4047 
Q 1172 3844 1172 3481 
z
" transform="scale(0.015625)"/>
       </defs>
       <use xlink:href="#DejaVuSans-38"/>
       <use xlink:href="#DejaVuSans-30" x="63.623047"/>
      </g>
     </g>
    </g>
    <g id="ytick_4">
     <g id="line2d_11">
      <g>
       <use xlink:href="#mfdad68ea79" x="108" y="295.660046" style="stroke: #000000; stroke-width: 0.8"/>
      </g>
     </g>
     <g id="text_12">
      <!-- 100 -->
      <g transform="translate(81.9125 299.459265)scale(0.1 -0.1)">
       <use xlink:href="#DejaVuSans-31"/>
       <use xlink:href="#DejaVuSans-30" x="63.623047"/>
       <use xlink:href="#DejaVuSans-30" x="127.246094"/>
      </g>
     </g>
    </g>
    <g id="ytick_5">
     <g id="line2d_12">
      <g>
       <use xlink:href="#mfdad68ea79" x="108" y="241.782137" style="stroke: #000000; stroke-width: 0.8"/>
      </g>
     </g>
     <g id="text_13">
      <!-- 120 -->
      <g transform="translate(81.9125 245.581356)scale(0.1 -0.1)">
       <use xlink:href="#DejaVuSans-31"/>
       <use xlink:href="#DejaVuSans-32" x="63.623047"/>
       <use xlink:href="#DejaVuSans-30" x="127.246094"/>
      </g>
     </g>
    </g>
    <g id="ytick_6">
     <g id="line2d_13">
      <g>
       <use xlink:href="#mfdad68ea79" x="108" y="187.904229" style="stroke: #000000; stroke-width: 0.8"/>
      </g>
     </g>
     <g id="text_14">
      <!-- 140 -->
      <g transform="translate(81.9125 191.703447)scale(0.1 -0.1)">
       <use xlink:href="#DejaVuSans-31"/>
       <use xlink:href="#DejaVuSans-34" x="63.623047"/>
       <use xlink:href="#DejaVuSans-30" x="127.246094"/>
      </g>
     </g>
    </g>
    <g id="ytick_7">
     <g id="line2d_14">
      <g>
       <use xlink:href="#mfdad68ea79" x="108" y="134.02632" style="stroke: #000000; stroke-width: 0.8"/>
      </g>
     </g>
     <g id="text_15">
      <!-- 160 -->
      <g transform="translate(81.9125 137.825538)scale(0.1 -0.1)">
       <use xlink:href="#DejaVuSans-31"/>
       <use xlink:href="#DejaVuSans-36" x="63.623047"/>
       <use xlink:href="#DejaVuSans-30" x="127.246094"/>
      </g>
     </g>
    </g>
    <g id="ytick_8">
     <g id="line2d_15">
      <g>
       <use xlink:href="#mfdad68ea79" x="108" y="80.148411" style="stroke: #000000; stroke-width: 0.8"/>
      </g>
     </g>
     <g id="text_16">
      <!-- 180 -->
      <g transform="translate(81.9125 83.94763)scale(0.1 -0.1)">
       <use xlink:href="#DejaVuSans-31"/>
       <use xlink:href="#DejaVuSans-38" x="63.623047"/>
       <use xlink:href="#DejaVuSans-30" x="127.246094"/>
      </g>
     </g>
    </g>
    <g id="text_17">
     <!-- Y -->
     <g transform="translate(75.832812 289.613906)rotate(-90)scale(0.1 -0.1)">
      <defs>
       <path id="DejaVuSans-59" d="M -13 4666 
L 666 4666 
L 1959 2747 
L 3244 4666 
L 3922 4666 
L 2272 2222 
L 2272 0 
L 1638 0 
L 1638 2222 
L -13 4666 
z
" transform="scale(0.015625)"/>
      </defs>
      <use xlink:href="#DejaVuSans-59"/>
     </g>
    </g>
   </g>
   <g id="line2d_16">
    <defs>
     <path id="m5106daa8ae" d="M 0 3 
C 0.795609 3 1.55874 2.683901 2.12132 2.12132 
C 2.683901 1.55874 3 0.795609 3 0 
C 3 -0.795609 2.683901 -1.55874 2.12132 -2.12132 
C 1.55874 -2.683901 0.795609 -3 0 -3 
C -0.795609 -3 -1.55874 -2.683901 -2.12132 -2.12132 
C -2.683901 -1.55874 -3 -0.795609 -3 0 
C -3 0.795609 -2.683901 1.55874 -2.12132 2.12132 
C -1.55874 2.683901 -0.795609 3 0 3 
z
" style="stroke: #000000"/>
    </defs>
    <g clip-path="url(#pfc1f606990)">
     <use xlink:href="#m5106daa8ae" x="138.436364" y="484.232727" style="stroke: #000000"/>
     <use xlink:href="#m5106daa8ae" x="158.727273" y="470.76325" style="stroke: #000000"/>
     <use xlink:href="#m5106daa8ae" x="179.018182" y="476.151041" style="stroke: #000000"/>
     <use xlink:href="#m5106daa8ae" x="199.309091" y="478.844936" style="stroke: #000000"/>
     <use xlink:href="#m5106daa8ae" x="219.6" y="473.457145" style="stroke: #000000"/>
     <use xlink:href="#m5106daa8ae" x="239.890909" y="465.375459" style="stroke: #000000"/>
     <use xlink:href="#m5106daa8ae" x="260.181818" y="459.987668" style="stroke: #000000"/>
     <use xlink:href="#m5106daa8ae" x="280.472727" y="462.681564" style="stroke: #000000"/>
     <use xlink:href="#m5106daa8ae" x="300.763636" y="468.069355" style="stroke: #000000"/>
     <use xlink:href="#m5106daa8ae" x="321.054545" y="468.069355" style="stroke: #000000"/>
     <use xlink:href="#m5106daa8ae" x="544.254545" y="438.436505" style="stroke: #000000"/>
     <use xlink:href="#m5106daa8ae" x="564.545455" y="433.048714" style="stroke: #000000"/>
     <use xlink:href="#m5106daa8ae" x="584.836364" y="430.354818" style="stroke: #000000"/>
     <use xlink:href="#m5106daa8ae" x="605.127273" y="433.048714" style="stroke: #000000"/>
     <use xlink:href="#m5106daa8ae" x="625.418182" y="441.1304" style="stroke: #000000"/>
     <use xlink:href="#m5106daa8ae" x="645.709091" y="435.742609" style="stroke: #000000"/>
     <use xlink:href="#m5106daa8ae" x="666" y="430.354818" style="stroke: #000000"/>
     <use xlink:href="#m5106daa8ae" x="686.290909" y="422.273132" style="stroke: #000000"/>
     <use xlink:href="#m5106daa8ae" x="706.581818" y="416.885341" style="stroke: #000000"/>
     <use xlink:href="#m5106daa8ae" x="726.872727" y="419.579237" style="stroke: #000000"/>
     <use xlink:href="#m5106daa8ae" x="747.163636" y="422.273132" style="stroke: #000000"/>
    </g>
   </g>
   <g id="line2d_17">
    <path d="M 138.436364 484.232447 
L 139.450909 480.566766 
L 140.465455 477.601958 
L 141.48 475.232422 
L 142.494545 473.365917 
L 143.509091 471.922162 
L 144.523636 470.831547 
L 145.538182 470.033965 
L 146.552727 469.477744 
L 147.770182 469.067114 
L 149.190545 468.862594 
L 150.813818 468.89254 
L 152.842909 469.192131 
L 155.683636 469.881082 
L 163.394182 472.118182 
L 171.510545 474.30796 
L 180.844364 476.60934 
L 186.12 477.701479 
L 190.381091 478.357308 
L 194.033455 478.69478 
L 197.482909 478.784742 
L 200.729455 478.645528 
L 203.976 478.280344 
L 207.222545 477.691034 
L 210.672 476.832651 
L 214.324364 475.690549 
L 218.585455 474.109011 
L 223.861091 471.892728 
L 239.282182 465.245804 
L 243.746182 463.646326 
L 247.804364 462.424339 
L 251.659636 461.499003 
L 255.312 460.851431 
L 258.964364 460.435796 
L 262.616727 460.254544 
L 266.269091 460.304161 
L 269.921455 460.57549 
L 273.776727 461.086159 
L 277.834909 461.846561 
L 282.501818 462.956639 
L 288.386182 464.60825 
L 300.763636 468.158277 
L 304.618909 468.993679 
L 307.865455 469.481633 
L 310.706182 469.695561 
L 313.344 469.675919 
L 315.778909 469.438463 
L 318.010909 469.009426 
L 320.242909 468.353762 
L 322.272 467.540767 
L 324.301091 466.502323 
L 326.330182 465.220202 
L 328.359273 463.676321 
L 330.388364 461.852894 
L 332.417455 459.732581 
L 334.446545 457.298651 
L 336.475636 454.535145 
L 338.707636 451.09674 
L 340.939636 447.222988 
L 343.171636 442.897375 
L 345.403636 438.105567 
L 347.838545 432.332545 
L 350.273455 425.978853 
L 352.911273 418.431751 
L 355.549091 410.190783 
L 358.389818 400.543651 
L 361.230545 390.108661 
L 364.274182 378.080526 
L 367.520727 364.330218 
L 370.970182 348.754593 
L 374.825455 330.294978 
L 379.289455 307.762386 
L 384.768 278.881926 
L 400.797818 193.557398 
L 404.856 173.581167 
L 408.305455 157.671033 
L 411.349091 144.632813 
L 414.189818 133.440854 
L 416.624727 124.68307 
L 419.059636 116.763541 
L 421.291636 110.290283 
L 423.320727 105.093674 
L 425.146909 101.000679 
L 426.770182 97.841906 
L 428.393455 95.145875 
L 429.813818 93.173978 
L 431.234182 91.569146 
L 432.451636 90.489198 
L 433.669091 89.684605 
L 434.886545 89.157181 
L 435.901091 88.930341 
L 436.915636 88.897368 
L 437.930182 89.058487 
L 438.944727 89.413669 
L 440.162182 90.095635 
L 441.379636 91.055657 
L 442.597091 92.292234 
L 444.017455 94.08171 
L 445.437818 96.240709 
L 447.061091 99.15406 
L 448.684364 102.534306 
L 450.510545 106.881822 
L 452.336727 111.789193 
L 454.365818 117.874173 
L 456.597818 125.300941 
L 459.032727 134.227144 
L 461.670545 144.794445 
L 464.511273 157.117416 
L 467.757818 172.245834 
L 471.410182 190.366845 
L 475.874182 213.691549 
L 482.976 252.192933 
L 490.889455 294.782233 
L 495.556364 318.661052 
L 499.411636 337.250477 
L 502.861091 352.803535 
L 505.904727 365.563175 
L 508.745455 376.585389 
L 511.383273 386.010189 
L 514.021091 394.626516 
L 516.456 401.847759 
L 518.890909 408.360456 
L 521.122909 413.709777 
L 523.354909 418.472598 
L 525.384 422.303461 
L 527.413091 425.671738 
L 529.442182 428.592684 
L 531.268364 430.85388 
L 533.094545 432.782135 
L 534.920727 434.393782 
L 536.746909 435.706482 
L 538.573091 436.739055 
L 540.399273 437.511302 
L 542.225455 438.043813 
L 544.051636 438.357811 
L 546.080727 438.476745 
L 548.312727 438.362707 
L 550.747636 437.991377 
L 553.385455 437.356334 
L 556.632 436.333923 
L 561.501818 434.532023 
L 568.400727 432.005714 
L 572.053091 430.909005 
L 575.299636 430.16081 
L 578.343273 429.687467 
L 581.184 429.460631 
L 584.024727 429.446021 
L 587.068364 429.660883 
L 590.112 430.099085 
L 593.561455 430.834344 
L 597.416727 431.898991 
L 602.489455 433.557617 
L 613.446545 437.223403 
L 617.504727 438.304087 
L 621.157091 439.041958 
L 624.403636 439.47783 
L 627.650182 439.688803 
L 630.896727 439.668426 
L 634.143273 439.41995 
L 637.592727 438.920252 
L 641.245091 438.153666 
L 645.303273 437.06171 
L 650.173091 435.501114 
L 656.869091 433.096459 
L 675.942545 426.138264 
L 693.798545 419.967025 
L 699.074182 418.370827 
L 702.929455 417.434598 
L 706.176 416.875359 
L 709.016727 416.602471 
L 711.857455 416.561524 
L 714.495273 416.741608 
L 717.336 417.162594 
L 720.582545 417.885637 
L 730.930909 420.40394 
L 733.162909 420.596104 
L 735.394909 420.561624 
L 737.829818 420.289837 
L 742.090909 419.740446 
L 743.308364 419.802223 
L 744.322909 420.039399 
L 745.337455 420.517983 
L 746.149091 421.132153 
L 746.960727 422.005815 
L 746.960727 422.005815 
" clip-path="url(#pfc1f606990)" style="fill: none; stroke: #ff0000; stroke-width: 1.5; stroke-linecap: square"/>
   </g>
   <g id="patch_3">
    <path d="M 108 504 
L 108 69.12 
" style="fill: none; stroke: #000000; stroke-width: 0.8; stroke-linejoin: miter; stroke-linecap: square"/>
   </g>
   <g id="patch_4">
    <path d="M 777.6 504 
L 777.6 69.12 
" style="fill: none; stroke: #000000; stroke-width: 0.8; stroke-linejoin: miter; stroke-linecap: square"/>
   </g>
   <g id="patch_5">
    <path d="M 108 504 
L 777.6 504 
" style="fill: none; stroke: #000000; stroke-width: 0.8; stroke-linejoin: miter; stroke-linecap: square"/>
   </g>
   <g id="patch_6">
    <path d="M 108 69.12 
L 777.6 69.12 
" style="fill: none; stroke: #000000; stroke-width: 0.8; stroke-linejoin: miter; stroke-linecap: square"/>
   </g>
   <g id="text_18">
    <!-- Figure 14:The black dots show the data distribution and the red curve is 19th order polynomial fit to data. -->
    <g transform="translate(124.434375 569.232)scale(0.12 -0.12)">
     <defs>
      <path id="DejaVuSans-46" d="M 628 4666 
L 3309 4666 
L 3309 4134 
L 1259 4134 
L 1259 2759 
L 3109 2759 
L 3109 2228 
L 1259 2228 
L 1259 0 
L 628 0 
L 628 4666 
z
" transform="scale(0.015625)"/>
      <path id="DejaVuSans-69" d="M 603 3500 
L 1178 3500 
L 1178 0 
L 603 0 
L 603 3500 
z
M 603 4863 
L 1178 4863 
L 1178 4134 
L 603 4134 
L 603 4863 
z
" transform="scale(0.015625)"/>
      <path id="DejaVuSans-67" d="M 2906 1791 
Q 2906 2416 2648 2759 
Q 2391 3103 1925 3103 
Q 1463 3103 1205 2759 
Q 947 2416 947 1791 
Q 947 1169 1205 825 
Q 1463 481 1925 481 
Q 2391 481 2648 825 
Q 2906 1169 2906 1791 
z
M 3481 434 
Q 3481 -459 3084 -895 
Q 2688 -1331 1869 -1331 
Q 1566 -1331 1297 -1286 
Q 1028 -1241 775 -1147 
L 775 -588 
Q 1028 -725 1275 -790 
Q 1522 -856 1778 -856 
Q 2344 -856 2625 -561 
Q 2906 -266 2906 331 
L 2906 616 
Q 2728 306 2450 153 
Q 2172 0 1784 0 
Q 1141 0 747 490 
Q 353 981 353 1791 
Q 353 2603 747 3093 
Q 1141 3584 1784 3584 
Q 2172 3584 2450 3431 
Q 2728 3278 2906 2969 
L 2906 3500 
L 3481 3500 
L 3481 434 
z
" transform="scale(0.015625)"/>
      <path id="DejaVuSans-75" d="M 544 1381 
L 544 3500 
L 1119 3500 
L 1119 1403 
Q 1119 906 1312 657 
Q 1506 409 1894 409 
Q 2359 409 2629 706 
Q 2900 1003 2900 1516 
L 2900 3500 
L 3475 3500 
L 3475 0 
L 2900 0 
L 2900 538 
Q 2691 219 2414 64 
Q 2138 -91 1772 -91 
Q 1169 -91 856 284 
Q 544 659 544 1381 
z
M 1991 3584 
L 1991 3584 
z
" transform="scale(0.015625)"/>
      <path id="DejaVuSans-72" d="M 2631 2963 
Q 2534 3019 2420 3045 
Q 2306 3072 2169 3072 
Q 1681 3072 1420 2755 
Q 1159 2438 1159 1844 
L 1159 0 
L 581 0 
L 581 3500 
L 1159 3500 
L 1159 2956 
Q 1341 3275 1631 3429 
Q 1922 3584 2338 3584 
Q 2397 3584 2469 3576 
Q 2541 3569 2628 3553 
L 2631 2963 
z
" transform="scale(0.015625)"/>
      <path id="DejaVuSans-65" d="M 3597 1894 
L 3597 1613 
L 953 1613 
Q 991 1019 1311 708 
Q 1631 397 2203 397 
Q 2534 397 2845 478 
Q 3156 559 3463 722 
L 3463 178 
Q 3153 47 2828 -22 
Q 2503 -91 2169 -91 
Q 1331 -91 842 396 
Q 353 884 353 1716 
Q 353 2575 817 3079 
Q 1281 3584 2069 3584 
Q 2775 3584 3186 3129 
Q 3597 2675 3597 1894 
z
M 3022 2063 
Q 3016 2534 2758 2815 
Q 2500 3097 2075 3097 
Q 1594 3097 1305 2825 
Q 1016 2553 972 2059 
L 3022 2063 
z
" transform="scale(0.015625)"/>
      <path id="DejaVuSans-20" transform="scale(0.015625)"/>
      <path id="DejaVuSans-3a" d="M 750 794 
L 1409 794 
L 1409 0 
L 750 0 
L 750 794 
z
M 750 3309 
L 1409 3309 
L 1409 2516 
L 750 2516 
L 750 3309 
z
" transform="scale(0.015625)"/>
      <path id="DejaVuSans-54" d="M -19 4666 
L 3928 4666 
L 3928 4134 
L 2272 4134 
L 2272 0 
L 1638 0 
L 1638 4134 
L -19 4134 
L -19 4666 
z
" transform="scale(0.015625)"/>
      <path id="DejaVuSans-68" d="M 3513 2113 
L 3513 0 
L 2938 0 
L 2938 2094 
Q 2938 2591 2744 2837 
Q 2550 3084 2163 3084 
Q 1697 3084 1428 2787 
Q 1159 2491 1159 1978 
L 1159 0 
L 581 0 
L 581 4863 
L 1159 4863 
L 1159 2956 
Q 1366 3272 1645 3428 
Q 1925 3584 2291 3584 
Q 2894 3584 3203 3211 
Q 3513 2838 3513 2113 
z
" transform="scale(0.015625)"/>
      <path id="DejaVuSans-62" d="M 3116 1747 
Q 3116 2381 2855 2742 
Q 2594 3103 2138 3103 
Q 1681 3103 1420 2742 
Q 1159 2381 1159 1747 
Q 1159 1113 1420 752 
Q 1681 391 2138 391 
Q 2594 391 2855 752 
Q 3116 1113 3116 1747 
z
M 1159 2969 
Q 1341 3281 1617 3432 
Q 1894 3584 2278 3584 
Q 2916 3584 3314 3078 
Q 3713 2572 3713 1747 
Q 3713 922 3314 415 
Q 2916 -91 2278 -91 
Q 1894 -91 1617 61 
Q 1341 213 1159 525 
L 1159 0 
L 581 0 
L 581 4863 
L 1159 4863 
L 1159 2969 
z
" transform="scale(0.015625)"/>
      <path id="DejaVuSans-6c" d="M 603 4863 
L 1178 4863 
L 1178 0 
L 603 0 
L 603 4863 
z
" transform="scale(0.015625)"/>
      <path id="DejaVuSans-61" d="M 2194 1759 
Q 1497 1759 1228 1600 
Q 959 1441 959 1056 
Q 959 750 1161 570 
Q 1363 391 1709 391 
Q 2188 391 2477 730 
Q 2766 1069 2766 1631 
L 2766 1759 
L 2194 1759 
z
M 3341 1997 
L 3341 0 
L 2766 0 
L 2766 531 
Q 2569 213 2275 61 
Q 1981 -91 1556 -91 
Q 1019 -91 701 211 
Q 384 513 384 1019 
Q 384 1609 779 1909 
Q 1175 2209 1959 2209 
L 2766 2209 
L 2766 2266 
Q 2766 2663 2505 2880 
Q 2244 3097 1772 3097 
Q 1472 3097 1187 3025 
Q 903 2953 641 2809 
L 641 3341 
Q 956 3463 1253 3523 
Q 1550 3584 1831 3584 
Q 2591 3584 2966 3190 
Q 3341 2797 3341 1997 
z
" transform="scale(0.015625)"/>
      <path id="DejaVuSans-63" d="M 3122 3366 
L 3122 2828 
Q 2878 2963 2633 3030 
Q 2388 3097 2138 3097 
Q 1578 3097 1268 2742 
Q 959 2388 959 1747 
Q 959 1106 1268 751 
Q 1578 397 2138 397 
Q 2388 397 2633 464 
Q 2878 531 3122 666 
L 3122 134 
Q 2881 22 2623 -34 
Q 2366 -91 2075 -91 
Q 1284 -91 818 406 
Q 353 903 353 1747 
Q 353 2603 823 3093 
Q 1294 3584 2113 3584 
Q 2378 3584 2631 3529 
Q 2884 3475 3122 3366 
z
" transform="scale(0.015625)"/>
      <path id="DejaVuSans-6b" d="M 581 4863 
L 1159 4863 
L 1159 1991 
L 2875 3500 
L 3609 3500 
L 1753 1863 
L 3688 0 
L 2938 0 
L 1159 1709 
L 1159 0 
L 581 0 
L 581 4863 
z
" transform="scale(0.015625)"/>
      <path id="DejaVuSans-64" d="M 2906 2969 
L 2906 4863 
L 3481 4863 
L 3481 0 
L 2906 0 
L 2906 525 
Q 2725 213 2448 61 
Q 2172 -91 1784 -91 
Q 1150 -91 751 415 
Q 353 922 353 1747 
Q 353 2572 751 3078 
Q 1150 3584 1784 3584 
Q 2172 3584 2448 3432 
Q 2725 3281 2906 2969 
z
M 947 1747 
Q 947 1113 1208 752 
Q 1469 391 1925 391 
Q 2381 391 2643 752 
Q 2906 1113 2906 1747 
Q 2906 2381 2643 2742 
Q 2381 3103 1925 3103 
Q 1469 3103 1208 2742 
Q 947 2381 947 1747 
z
" transform="scale(0.015625)"/>
      <path id="DejaVuSans-6f" d="M 1959 3097 
Q 1497 3097 1228 2736 
Q 959 2375 959 1747 
Q 959 1119 1226 758 
Q 1494 397 1959 397 
Q 2419 397 2687 759 
Q 2956 1122 2956 1747 
Q 2956 2369 2687 2733 
Q 2419 3097 1959 3097 
z
M 1959 3584 
Q 2709 3584 3137 3096 
Q 3566 2609 3566 1747 
Q 3566 888 3137 398 
Q 2709 -91 1959 -91 
Q 1206 -91 779 398 
Q 353 888 353 1747 
Q 353 2609 779 3096 
Q 1206 3584 1959 3584 
z
" transform="scale(0.015625)"/>
      <path id="DejaVuSans-74" d="M 1172 4494 
L 1172 3500 
L 2356 3500 
L 2356 3053 
L 1172 3053 
L 1172 1153 
Q 1172 725 1289 603 
Q 1406 481 1766 481 
L 2356 481 
L 2356 0 
L 1766 0 
Q 1100 0 847 248 
Q 594 497 594 1153 
L 594 3053 
L 172 3053 
L 172 3500 
L 594 3500 
L 594 4494 
L 1172 4494 
z
" transform="scale(0.015625)"/>
      <path id="DejaVuSans-73" d="M 2834 3397 
L 2834 2853 
Q 2591 2978 2328 3040 
Q 2066 3103 1784 3103 
Q 1356 3103 1142 2972 
Q 928 2841 928 2578 
Q 928 2378 1081 2264 
Q 1234 2150 1697 2047 
L 1894 2003 
Q 2506 1872 2764 1633 
Q 3022 1394 3022 966 
Q 3022 478 2636 193 
Q 2250 -91 1575 -91 
Q 1294 -91 989 -36 
Q 684 19 347 128 
L 347 722 
Q 666 556 975 473 
Q 1284 391 1588 391 
Q 1994 391 2212 530 
Q 2431 669 2431 922 
Q 2431 1156 2273 1281 
Q 2116 1406 1581 1522 
L 1381 1569 
Q 847 1681 609 1914 
Q 372 2147 372 2553 
Q 372 3047 722 3315 
Q 1072 3584 1716 3584 
Q 2034 3584 2315 3537 
Q 2597 3491 2834 3397 
z
" transform="scale(0.015625)"/>
      <path id="DejaVuSans-77" d="M 269 3500 
L 844 3500 
L 1563 769 
L 2278 3500 
L 2956 3500 
L 3675 769 
L 4391 3500 
L 4966 3500 
L 4050 0 
L 3372 0 
L 2619 2869 
L 1863 0 
L 1184 0 
L 269 3500 
z
" transform="scale(0.015625)"/>
      <path id="DejaVuSans-6e" d="M 3513 2113 
L 3513 0 
L 2938 0 
L 2938 2094 
Q 2938 2591 2744 2837 
Q 2550 3084 2163 3084 
Q 1697 3084 1428 2787 
Q 1159 2491 1159 1978 
L 1159 0 
L 581 0 
L 581 3500 
L 1159 3500 
L 1159 2956 
Q 1366 3272 1645 3428 
Q 1925 3584 2291 3584 
Q 2894 3584 3203 3211 
Q 3513 2838 3513 2113 
z
" transform="scale(0.015625)"/>
      <path id="DejaVuSans-76" d="M 191 3500 
L 800 3500 
L 1894 563 
L 2988 3500 
L 3597 3500 
L 2284 0 
L 1503 0 
L 191 3500 
z
" transform="scale(0.015625)"/>
      <path id="DejaVuSans-39" d="M 703 97 
L 703 672 
Q 941 559 1184 500 
Q 1428 441 1663 441 
Q 2288 441 2617 861 
Q 2947 1281 2994 2138 
Q 2813 1869 2534 1725 
Q 2256 1581 1919 1581 
Q 1219 1581 811 2004 
Q 403 2428 403 3163 
Q 403 3881 828 4315 
Q 1253 4750 1959 4750 
Q 2769 4750 3195 4129 
Q 3622 3509 3622 2328 
Q 3622 1225 3098 567 
Q 2575 -91 1691 -91 
Q 1453 -91 1209 -44 
Q 966 3 703 97 
z
M 1959 2075 
Q 2384 2075 2632 2365 
Q 2881 2656 2881 3163 
Q 2881 3666 2632 3958 
Q 2384 4250 1959 4250 
Q 1534 4250 1286 3958 
Q 1038 3666 1038 3163 
Q 1038 2656 1286 2365 
Q 1534 2075 1959 2075 
z
" transform="scale(0.015625)"/>
      <path id="DejaVuSans-70" d="M 1159 525 
L 1159 -1331 
L 581 -1331 
L 581 3500 
L 1159 3500 
L 1159 2969 
Q 1341 3281 1617 3432 
Q 1894 3584 2278 3584 
Q 2916 3584 3314 3078 
Q 3713 2572 3713 1747 
Q 3713 922 3314 415 
Q 2916 -91 2278 -91 
Q 1894 -91 1617 61 
Q 1341 213 1159 525 
z
M 3116 1747 
Q 3116 2381 2855 2742 
Q 2594 3103 2138 3103 
Q 1681 3103 1420 2742 
Q 1159 2381 1159 1747 
Q 1159 1113 1420 752 
Q 1681 391 2138 391 
Q 2594 391 2855 752 
Q 3116 1113 3116 1747 
z
" transform="scale(0.015625)"/>
      <path id="DejaVuSans-79" d="M 2059 -325 
Q 1816 -950 1584 -1140 
Q 1353 -1331 966 -1331 
L 506 -1331 
L 506 -850 
L 844 -850 
Q 1081 -850 1212 -737 
Q 1344 -625 1503 -206 
L 1606 56 
L 191 3500 
L 800 3500 
L 1894 763 
L 2988 3500 
L 3597 3500 
L 2059 -325 
z
" transform="scale(0.015625)"/>
      <path id="DejaVuSans-6d" d="M 3328 2828 
Q 3544 3216 3844 3400 
Q 4144 3584 4550 3584 
Q 5097 3584 5394 3201 
Q 5691 2819 5691 2113 
L 5691 0 
L 5113 0 
L 5113 2094 
Q 5113 2597 4934 2840 
Q 4756 3084 4391 3084 
Q 3944 3084 3684 2787 
Q 3425 2491 3425 1978 
L 3425 0 
L 2847 0 
L 2847 2094 
Q 2847 2600 2669 2842 
Q 2491 3084 2119 3084 
Q 1678 3084 1418 2786 
Q 1159 2488 1159 1978 
L 1159 0 
L 581 0 
L 581 3500 
L 1159 3500 
L 1159 2956 
Q 1356 3278 1631 3431 
Q 1906 3584 2284 3584 
Q 2666 3584 2933 3390 
Q 3200 3197 3328 2828 
z
" transform="scale(0.015625)"/>
      <path id="DejaVuSans-66" d="M 2375 4863 
L 2375 4384 
L 1825 4384 
Q 1516 4384 1395 4259 
Q 1275 4134 1275 3809 
L 1275 3500 
L 2222 3500 
L 2222 3053 
L 1275 3053 
L 1275 0 
L 697 0 
L 697 3053 
L 147 3053 
L 147 3500 
L 697 3500 
L 697 3744 
Q 697 4328 969 4595 
Q 1241 4863 1831 4863 
L 2375 4863 
z
" transform="scale(0.015625)"/>
      <path id="DejaVuSans-2e" d="M 684 794 
L 1344 794 
L 1344 0 
L 684 0 
L 684 794 
z
" transform="scale(0.015625)"/>
     </defs>
     <use xlink:href="#DejaVuSans-46"/>
     <use xlink:href="#DejaVuSans-69" x="50.269531"/>
     <use xlink:href="#DejaVuSans-67" x="78.052734"/>
     <use xlink:href="#DejaVuSans-75" x="141.529297"/>
     <use xlink:href="#DejaVuSans-72" x="204.908203"/>
     <use xlink:href="#DejaVuSans-65" x="243.771484"/>
     <use xlink:href="#DejaVuSans-20" x="305.294922"/>
     <use xlink:href="#DejaVuSans-31" x="337.082031"/>
     <use xlink:href="#DejaVuSans-34" x="400.705078"/>
     <use xlink:href="#DejaVuSans-3a" x="464.328125"/>
     <use xlink:href="#DejaVuSans-54" x="498.019531"/>
     <use xlink:href="#DejaVuSans-68" x="559.103516"/>
     <use xlink:href="#DejaVuSans-65" x="622.482422"/>
     <use xlink:href="#DejaVuSans-20" x="684.005859"/>
     <use xlink:href="#DejaVuSans-62" x="715.792969"/>
     <use xlink:href="#DejaVuSans-6c" x="779.269531"/>
     <use xlink:href="#DejaVuSans-61" x="807.052734"/>
     <use xlink:href="#DejaVuSans-63" x="868.332031"/>
     <use xlink:href="#DejaVuSans-6b" x="923.3125"/>
     <use xlink:href="#DejaVuSans-20" x="981.222656"/>
     <use xlink:href="#DejaVuSans-64" x="1013.009766"/>
     <use xlink:href="#DejaVuSans-6f" x="1076.486328"/>
     <use xlink:href="#DejaVuSans-74" x="1137.667969"/>
     <use xlink:href="#DejaVuSans-73" x="1176.876953"/>
     <use xlink:href="#DejaVuSans-20" x="1228.976562"/>
     <use xlink:href="#DejaVuSans-73" x="1260.763672"/>
     <use xlink:href="#DejaVuSans-68" x="1312.863281"/>
     <use xlink:href="#DejaVuSans-6f" x="1376.242188"/>
     <use xlink:href="#DejaVuSans-77" x="1437.423828"/>
     <use xlink:href="#DejaVuSans-20" x="1519.210938"/>
     <use xlink:href="#DejaVuSans-74" x="1550.998047"/>
     <use xlink:href="#DejaVuSans-68" x="1590.207031"/>
     <use xlink:href="#DejaVuSans-65" x="1653.585938"/>
     <use xlink:href="#DejaVuSans-20" x="1715.109375"/>
     <use xlink:href="#DejaVuSans-64" x="1746.896484"/>
     <use xlink:href="#DejaVuSans-61" x="1810.373047"/>
     <use xlink:href="#DejaVuSans-74" x="1871.652344"/>
     <use xlink:href="#DejaVuSans-61" x="1910.861328"/>
     <use xlink:href="#DejaVuSans-20" x="1972.140625"/>
     <use xlink:href="#DejaVuSans-64" x="2003.927734"/>
     <use xlink:href="#DejaVuSans-69" x="2067.404297"/>
     <use xlink:href="#DejaVuSans-73" x="2095.1875"/>
     <use xlink:href="#DejaVuSans-74" x="2147.287109"/>
     <use xlink:href="#DejaVuSans-72" x="2186.496094"/>
     <use xlink:href="#DejaVuSans-69" x="2227.609375"/>
     <use xlink:href="#DejaVuSans-62" x="2255.392578"/>
     <use xlink:href="#DejaVuSans-75" x="2318.869141"/>
     <use xlink:href="#DejaVuSans-74" x="2382.248047"/>
     <use xlink:href="#DejaVuSans-69" x="2421.457031"/>
     <use xlink:href="#DejaVuSans-6f" x="2449.240234"/>
     <use xlink:href="#DejaVuSans-6e" x="2510.421875"/>
     <use xlink:href="#DejaVuSans-20" x="2573.800781"/>
     <use xlink:href="#DejaVuSans-61" x="2605.587891"/>
     <use xlink:href="#DejaVuSans-6e" x="2666.867188"/>
     <use xlink:href="#DejaVuSans-64" x="2730.246094"/>
     <use xlink:href="#DejaVuSans-20" x="2793.722656"/>
     <use xlink:href="#DejaVuSans-74" x="2825.509766"/>
     <use xlink:href="#DejaVuSans-68" x="2864.71875"/>
     <use xlink:href="#DejaVuSans-65" x="2928.097656"/>
     <use xlink:href="#DejaVuSans-20" x="2989.621094"/>
     <use xlink:href="#DejaVuSans-72" x="3021.408203"/>
     <use xlink:href="#DejaVuSans-65" x="3060.271484"/>
     <use xlink:href="#DejaVuSans-64" x="3121.794922"/>
     <use xlink:href="#DejaVuSans-20" x="3185.271484"/>
     <use xlink:href="#DejaVuSans-63" x="3217.058594"/>
     <use xlink:href="#DejaVuSans-75" x="3272.039062"/>
     <use xlink:href="#DejaVuSans-72" x="3335.417969"/>
     <use xlink:href="#DejaVuSans-76" x="3376.53125"/>
     <use xlink:href="#DejaVuSans-65" x="3435.710938"/>
     <use xlink:href="#DejaVuSans-20" x="3497.234375"/>
     <use xlink:href="#DejaVuSans-69" x="3529.021484"/>
     <use xlink:href="#DejaVuSans-73" x="3556.804688"/>
     <use xlink:href="#DejaVuSans-20" x="3608.904297"/>
     <use xlink:href="#DejaVuSans-31" x="3640.691406"/>
     <use xlink:href="#DejaVuSans-39" x="3704.314453"/>
     <use xlink:href="#DejaVuSans-74" x="3767.9375"/>
     <use xlink:href="#DejaVuSans-68" x="3807.146484"/>
     <use xlink:href="#DejaVuSans-20" x="3870.525391"/>
     <use xlink:href="#DejaVuSans-6f" x="3902.3125"/>
     <use xlink:href="#DejaVuSans-72" x="3963.494141"/>
     <use xlink:href="#DejaVuSans-64" x="4002.857422"/>
     <use xlink:href="#DejaVuSans-65" x="4066.333984"/>
     <use xlink:href="#DejaVuSans-72" x="4127.857422"/>
     <use xlink:href="#DejaVuSans-20" x="4168.970703"/>
     <use xlink:href="#DejaVuSans-70" x="4200.757812"/>
     <use xlink:href="#DejaVuSans-6f" x="4264.234375"/>
     <use xlink:href="#DejaVuSans-6c" x="4325.416016"/>
     <use xlink:href="#DejaVuSans-79" x="4353.199219"/>
     <use xlink:href="#DejaVuSans-6e" x="4412.378906"/>
     <use xlink:href="#DejaVuSans-6f" x="4475.757812"/>
     <use xlink:href="#DejaVuSans-6d" x="4536.939453"/>
     <use xlink:href="#DejaVuSans-69" x="4634.351562"/>
     <use xlink:href="#DejaVuSans-61" x="4662.134766"/>
     <use xlink:href="#DejaVuSans-6c" x="4723.414062"/>
     <use xlink:href="#DejaVuSans-20" x="4751.197266"/>
     <use xlink:href="#DejaVuSans-66" x="4782.984375"/>
     <use xlink:href="#DejaVuSans-69" x="4818.189453"/>
     <use xlink:href="#DejaVuSans-74" x="4845.972656"/>
     <use xlink:href="#DejaVuSans-20" x="4885.181641"/>
     <use xlink:href="#DejaVuSans-74" x="4916.96875"/>
     <use xlink:href="#DejaVuSans-6f" x="4956.177734"/>
     <use xlink:href="#DejaVuSans-20" x="5017.359375"/>
     <use xlink:href="#DejaVuSans-64" x="5049.146484"/>
     <use xlink:href="#DejaVuSans-61" x="5112.623047"/>
     <use xlink:href="#DejaVuSans-74" x="5173.902344"/>
     <use xlink:href="#DejaVuSans-61" x="5213.111328"/>
     <use xlink:href="#DejaVuSans-2e" x="5274.390625"/>
    </g>
   </g>
   <g id="text_19">
    <!-- First 10 and last 10 train data fitting into 19th order polynomial model -->
    <g transform="translate(231.675 63.12)scale(0.12 -0.12)">
     <use xlink:href="#DejaVuSans-46"/>
     <use xlink:href="#DejaVuSans-69" x="50.269531"/>
     <use xlink:href="#DejaVuSans-72" x="78.052734"/>
     <use xlink:href="#DejaVuSans-73" x="119.166016"/>
     <use xlink:href="#DejaVuSans-74" x="171.265625"/>
     <use xlink:href="#DejaVuSans-20" x="210.474609"/>
     <use xlink:href="#DejaVuSans-31" x="242.261719"/>
     <use xlink:href="#DejaVuSans-30" x="305.884766"/>
     <use xlink:href="#DejaVuSans-20" x="369.507812"/>
     <use xlink:href="#DejaVuSans-61" x="401.294922"/>
     <use xlink:href="#DejaVuSans-6e" x="462.574219"/>
     <use xlink:href="#DejaVuSans-64" x="525.953125"/>
     <use xlink:href="#DejaVuSans-20" x="589.429688"/>
     <use xlink:href="#DejaVuSans-6c" x="621.216797"/>
     <use xlink:href="#DejaVuSans-61" x="649"/>
     <use xlink:href="#DejaVuSans-73" x="710.279297"/>
     <use xlink:href="#DejaVuSans-74" x="762.378906"/>
     <use xlink:href="#DejaVuSans-20" x="801.587891"/>
     <use xlink:href="#DejaVuSans-31" x="833.375"/>
     <use xlink:href="#DejaVuSans-30" x="896.998047"/>
     <use xlink:href="#DejaVuSans-20" x="960.621094"/>
     <use xlink:href="#DejaVuSans-74" x="992.408203"/>
     <use xlink:href="#DejaVuSans-72" x="1031.617188"/>
     <use xlink:href="#DejaVuSans-61" x="1072.730469"/>
     <use xlink:href="#DejaVuSans-69" x="1134.009766"/>
     <use xlink:href="#DejaVuSans-6e" x="1161.792969"/>
     <use xlink:href="#DejaVuSans-20" x="1225.171875"/>
     <use xlink:href="#DejaVuSans-64" x="1256.958984"/>
     <use xlink:href="#DejaVuSans-61" x="1320.435547"/>
     <use xlink:href="#DejaVuSans-74" x="1381.714844"/>
     <use xlink:href="#DejaVuSans-61" x="1420.923828"/>
     <use xlink:href="#DejaVuSans-20" x="1482.203125"/>
     <use xlink:href="#DejaVuSans-66" x="1513.990234"/>
     <use xlink:href="#DejaVuSans-69" x="1549.195312"/>
     <use xlink:href="#DejaVuSans-74" x="1576.978516"/>
     <use xlink:href="#DejaVuSans-74" x="1616.1875"/>
     <use xlink:href="#DejaVuSans-69" x="1655.396484"/>
     <use xlink:href="#DejaVuSans-6e" x="1683.179688"/>
     <use xlink:href="#DejaVuSans-67" x="1746.558594"/>
     <use xlink:href="#DejaVuSans-20" x="1810.035156"/>
     <use xlink:href="#DejaVuSans-69" x="1841.822266"/>
     <use xlink:href="#DejaVuSans-6e" x="1869.605469"/>
     <use xlink:href="#DejaVuSans-74" x="1932.984375"/>
     <use xlink:href="#DejaVuSans-6f" x="1972.193359"/>
     <use xlink:href="#DejaVuSans-20" x="2033.375"/>
     <use xlink:href="#DejaVuSans-31" x="2065.162109"/>
     <use xlink:href="#DejaVuSans-39" x="2128.785156"/>
     <use xlink:href="#DejaVuSans-74" x="2192.408203"/>
     <use xlink:href="#DejaVuSans-68" x="2231.617188"/>
     <use xlink:href="#DejaVuSans-20" x="2294.996094"/>
     <use xlink:href="#DejaVuSans-6f" x="2326.783203"/>
     <use xlink:href="#DejaVuSans-72" x="2387.964844"/>
     <use xlink:href="#DejaVuSans-64" x="2427.328125"/>
     <use xlink:href="#DejaVuSans-65" x="2490.804688"/>
     <use xlink:href="#DejaVuSans-72" x="2552.328125"/>
     <use xlink:href="#DejaVuSans-20" x="2593.441406"/>
     <use xlink:href="#DejaVuSans-70" x="2625.228516"/>
     <use xlink:href="#DejaVuSans-6f" x="2688.705078"/>
     <use xlink:href="#DejaVuSans-6c" x="2749.886719"/>
     <use xlink:href="#DejaVuSans-79" x="2777.669922"/>
     <use xlink:href="#DejaVuSans-6e" x="2836.849609"/>
     <use xlink:href="#DejaVuSans-6f" x="2900.228516"/>
     <use xlink:href="#DejaVuSans-6d" x="2961.410156"/>
     <use xlink:href="#DejaVuSans-69" x="3058.822266"/>
     <use xlink:href="#DejaVuSans-61" x="3086.605469"/>
     <use xlink:href="#DejaVuSans-6c" x="3147.884766"/>
     <use xlink:href="#DejaVuSans-20" x="3175.667969"/>
     <use xlink:href="#DejaVuSans-6d" x="3207.455078"/>
     <use xlink:href="#DejaVuSans-6f" x="3304.867188"/>
     <use xlink:href="#DejaVuSans-64" x="3366.048828"/>
     <use xlink:href="#DejaVuSans-65" x="3429.525391"/>
     <use xlink:href="#DejaVuSans-6c" x="3491.048828"/>
    </g>
   </g>
   <g id="legend_1">
    <g id="patch_7">
     <path d="M 716.075 106.47625 
L 770.6 106.47625 
Q 772.6 106.47625 772.6 104.47625 
L 772.6 76.12 
Q 772.6 74.12 770.6 74.12 
L 716.075 74.12 
Q 714.075 74.12 714.075 76.12 
L 714.075 104.47625 
Q 714.075 106.47625 716.075 106.47625 
z
" style="fill: #ffffff; opacity: 0.8; stroke: #cccccc; stroke-linejoin: miter"/>
    </g>
    <g id="line2d_18">
     <g>
      <use xlink:href="#m5106daa8ae" x="728.075" y="82.218437" style="stroke: #000000"/>
     </g>
    </g>
    <g id="text_20">
     <!-- data -->
     <g transform="translate(746.075 85.718437)scale(0.1 -0.1)">
      <use xlink:href="#DejaVuSans-64"/>
      <use xlink:href="#DejaVuSans-61" x="63.476562"/>
      <use xlink:href="#DejaVuSans-74" x="124.755859"/>
      <use xlink:href="#DejaVuSans-61" x="163.964844"/>
     </g>
    </g>
    <g id="line2d_19">
     <path d="M 718.075 96.896563 
L 728.075 96.896563 
L 738.075 96.896563 
" style="fill: none; stroke: #ff0000; stroke-width: 1.5; stroke-linecap: square"/>
    </g>
    <g id="text_21">
     <!-- fit -->
     <g transform="translate(746.075 100.396563)scale(0.1 -0.1)">
      <use xlink:href="#DejaVuSans-66"/>
      <use xlink:href="#DejaVuSans-69" x="35.205078"/>
      <use xlink:href="#DejaVuSans-74" x="62.988281"/>
     </g>
    </g>
   </g>
  </g>
 </g>
 <defs>
  <clipPath id="pfc1f606990">
   <rect x="108" y="69.12" width="669.6" height="434.88"/>
  </clipPath>
 </defs>
</svg>
